<svg width="20" height="20" viewBox="0 0 20 20" fill="none" xmlns="http://www.w3.org/2000/svg">
  <path d="M6.66667 10.8333C8.04738 10.8333 9.16667 9.71404 9.16667 8.33333C9.16667 6.95262 8.04738 5.83333 6.66667 5.83333C5.28596 5.83333 4.16667 6.95262 4.16667 8.33333C4.16667 9.71404 5.28596 10.8333 6.66667 10.8333Z" stroke="#94A3B8" stroke-width="1.5" stroke-linecap="round" stroke-linejoin="round"/>
  <path d="M13.3333 10.8333C14.714 10.8333 15.8333 9.71404 15.8333 8.33333C15.8333 6.95262 14.714 5.83333 13.3333 5.83333C11.9526 5.83333 10.8333 6.95262 10.8333 8.33333C10.8333 9.71404 11.9526 10.8333 13.3333 10.8333Z" stroke="#94A3B8" stroke-width="1.5" stroke-linecap="round" stroke-linejoin="round"/>
  <path d="M6.66667 4.16667V5.83333" stroke="#94A3B8" stroke-width="1.5" stroke-linecap="round" stroke-linejoin="round"/>
  <path d="M13.3333 4.16667V5.83333" stroke="#94A3B8" stroke-width="1.5" stroke-linecap="round" stroke-linejoin="round"/>
  <path d="M6.66667 10.8333V15.8333" stroke="#94A3B8" stroke-width="1.5" stroke-linecap="round" stroke-linejoin="round"/>
  <path d="M13.3333 10.8333V15.8333" stroke="#94A3B8" stroke-width="1.5" stroke-linecap="round" stroke-linejoin="round"/>
</svg> 